<?xml version="1.0" standalone="no"?>
<!DOCTYPE svg PUBLIC "-//W3C//DTD SVG 20010904//EN"
 "http://www.w3.org/TR/2001/REC-SVG-20010904/DTD/svg10.dtd">
<svg version="1.0" xmlns="http://www.w3.org/2000/svg"
 width="640.000000pt" height="640.000000pt" viewBox="0 0 640.000000 640.000000"
 preserveAspectRatio="xMidYMid meet">
<metadata>
Created by potrace 1.11, written by Peter Selinger 2001-2013
</metadata>
<g transform="translate(0.000000,640.000000) scale(0.100000,-0.100000)"
fill="#000000" stroke="none">
<path d="M3862 4642 c-44 -75 -173 -292 -285 -480 l-205 -344 157 -242 c144
-224 157 -242 172 -227 9 9 18 22 20 27 2 6 53 86 114 178 l109 166 34 -52
c29 -46 228 -371 273 -446 9 -15 47 -77 85 -139 149 -242 563 -919 682 -1113
109 -179 171 -278 207 -334 8 -13 32 -1 150 74 77 49 179 113 227 143 l88 54
-29 44 c-15 25 -30 50 -32 55 -2 6 -24 42 -48 80 -23 38 -119 195 -212 349
-93 154 -173 287 -178 295 -5 8 -226 373 -492 810 -265 437 -492 811 -505 830
-12 19 -68 112 -125 205 -56 94 -107 178 -114 187 -10 15 -23 -2 -93 -120z"/>
<path d="M2407 4748 c-8 -13 -70 -115 -137 -228 -119 -197 -478 -792 -725
-1200 -253 -419 -461 -762 -480 -794 -17 -29 -277 -460 -357 -592 l-28 -45 33
-19 c17 -11 117 -71 222 -134 104 -63 193 -112 196 -110 5 2 232 367 300 482
32 53 529 857 539 872 19 27 290 465 296 478 4 8 42 70 84 138 l77 124 33 -53
c18 -28 125 -203 238 -387 112 -184 215 -351 227 -370 23 -34 253 -411 343
-560 25 -41 60 -97 77 -125 18 -27 108 -174 200 -325 92 -151 168 -276 170
-278 2 -2 420 262 442 280 10 8 9 15 -1 31 -8 12 -90 148 -183 302 -94 154
-246 405 -339 558 -93 153 -176 290 -185 305 -9 15 -80 133 -159 262 -79 129
-150 247 -159 262 -13 23 -498 822 -655 1080 -23 37 -44 68 -48 68 -4 0 -14
-10 -21 -22z"/>
<path d="M5267 4759 c-108 -17 -229 -105 -275 -201 -156 -321 142 -661 471
-538 76 28 164 110 201 186 32 66 45 162 33 243 -22 146 -159 287 -299 307
-75 10 -82 11 -131 3z m160 -183 c78 -43 117 -111 117 -201 -1 -124 -93 -216
-217 -218 -158 -2 -265 168 -199 315 26 58 70 97 132 118 56 19 116 14 167
-14z"/>
</g>
</svg>
